<svg width="704" height="372" viewBox="0 0 704 372" fill="none" xmlns="http://www.w3.org/2000/svg">
<path d="M703 1V371H1V1H703Z" fill="white"/>
<path d="M703 1V371H1V1H703Z" stroke="black" stroke-width="2"/>
<path d="M182.375 237.125V234.25H179.5V231.375H185.25V234.25H193.875V228.5H185.25V225.625H193.875V219.875H185.25V222.75H179.5V219.875H182.375V217H196.75V219.875H199.625V225.625H196.75V228.5H199.625V234.25H196.75V237.125H182.375ZM202.5 237.125V222.75H205.375V219.875H208.25V217H216.875V219.875H219.75V222.75H222.625V237.125H216.875V231.375H208.25V237.125H202.5ZM208.25 228.5H216.875V222.75H214V219.875H211.125V222.75H208.25V228.5ZM234.125 222.75H237V225.625H239.875V228.5H242.75V234.25H245.625V237.125H239.875V234.25H237V228.5H231.25V237.125H225.5V217H231.25V225.625H234.125V222.75ZM245.625 217V219.875H242.75V222.75H237V219.875H239.875V217H245.625ZM248.5 237.125V217H265.75V219.875H268.625V228.5H265.75V231.375H254.25V237.125H248.5ZM254.25 228.5H262.875V219.875H254.25V228.5ZM271.5 237.125V217H277.25V222.75H283V237.125H271.5ZM285.875 237.125V217H291.625V237.125H285.875ZM277.25 234.25H280.125V225.625H277.25V234.25ZM294.5 237.125V217H311.75V219.875H314.625V225.625H311.75V228.5H314.625V234.25H311.75V237.125H294.5ZM300.25 225.625H308.875V219.875H300.25V225.625ZM300.25 234.25H308.875V228.5H300.25V234.25ZM317.5 237.125V222.75H320.375V219.875H323.25V217H331.875V219.875H334.75V222.75H337.625V237.125H331.875V231.375H323.25V237.125H317.5ZM323.25 228.5H331.875V222.75H329V219.875H326.125V222.75H323.25V228.5ZM340.5 237.125V217H343.375V225.625H346.25V219.875H349.125V217H357.75V219.875H360.625V234.25H357.75V237.125H349.125V234.25H346.25V228.5H343.375V237.125H340.5ZM352 234.25H354.875V219.875H352V234.25ZM380.75 240V237.125H363.5V217H369.25V234.25H372.125V217H375V234.25H377.875V217H383.625V234.25H386.5V240H380.75ZM386.5 237.125V217H392.25V228.5H395.125V225.625H398V222.75H400.875V217H406.625V237.125H400.875V228.5H398V231.375H395.125V234.25H392.25V237.125H386.5ZM412.375 219.875V217H426.75V219.875H412.375ZM409.5 237.125V222.75H415.25V231.375H418.125V228.5H421V225.625H423.875V222.75H429.625V237.125H423.875V231.375H421V234.25H418.125V237.125H409.5ZM464.125 237.125V219.875H458.375V217H475.625V219.875H469.875V237.125H464.125ZM478.5 237.125V217H498.625V219.875H484.25V225.625H495.75V228.5H484.25V234.25H498.625V237.125H478.5ZM504.375 237.125V217H521.625V222.75H518.75V219.875H510.125V237.125H504.375Z" fill="black"/>
<path d="M157 188.875V180.75H148.875V172.625H140.75V164.5H132.625V156.375H140.75V148.25H148.875V140.125H157V132H173.25V140.125H165.125V148.25H157V156.375H148.875V164.5H157V172.625H165.125V180.75H173.25V188.875H157ZM246.375 132V140.125H238.25V132H246.375ZM230.125 140.125H238.25V148.25H230.125V140.125ZM222 148.25H230.125V156.375H222V148.25ZM213.875 156.375H222V164.5H213.875V156.375ZM205.75 164.5H213.875V172.625H205.75V164.5ZM197.625 172.625H205.75V180.75H197.625V172.625ZM189.5 180.75H197.625V188.875H189.5V180.75ZM254.5 188.875V132H270.75V156.375H295.125V132H311.375V188.875H295.125V164.5H270.75V188.875H254.5ZM343.875 188.875V140.125H327.625V132H376.375V140.125H360.125V188.875H343.875ZM384.5 188.875V132H400.75V140.125H408.875V148.25H417V140.125H425.125V132H441.375V188.875H425.125V156.375H417V172.625H408.875V156.375H400.75V188.875H384.5ZM457.625 188.875V132H473.875V180.75H506.375V188.875H457.625ZM522.625 188.875V180.75H530.75V172.625H538.875V164.5H547V156.375H538.875V148.25H530.75V140.125H522.625V132H538.875V140.125H547V148.25H555.125V156.375H563.25V164.5H555.125V172.625H547V180.75H538.875V188.875H522.625Z" fill="black"/>
</svg>
