<svg width="375" height="327" viewBox="0 0 375 327" fill="none" xmlns="http://www.w3.org/2000/svg">
<path d="M374 1V326H1V1H374Z" fill="white"/>
<path d="M374 1V326H1V1H374Z" stroke="black" stroke-width="2"/>
<path d="M84.75 203.25V201.5H83V199.75H86.5V201.5H91.75V198H86.5V196.25H91.75V192.75H86.5V194.5H83V192.75H84.75V191H93.5V192.75H95.25V196.25H93.5V198H95.25V201.5H93.5V203.25H84.75ZM97 203.25V194.5H98.75V192.75H100.5V191H105.75V192.75H107.5V194.5H109.25V203.25H105.75V199.75H100.5V203.25H97ZM100.5 198H105.75V194.5H104V192.75H102.25V194.5H100.5V198ZM116.25 194.5H118V196.25H119.75V198H121.5V201.5H123.25V203.25H119.75V201.5H118V198H114.5V203.25H111V191H114.5V196.25H116.25V194.5ZM123.25 191V192.75H121.5V194.5H118V192.75H119.75V191H123.25ZM125 203.25V191H135.5V192.75H137.25V198H135.5V199.75H128.5V203.25H125ZM128.5 198H133.75V192.75H128.5V198ZM139 203.25V191H142.5V194.5H146V203.25H139ZM147.75 203.25V191H151.25V203.25H147.75ZM142.5 201.5H144.25V196.25H142.5V201.5ZM153 203.25V191H163.5V192.75H165.25V196.25H163.5V198H165.25V201.5H163.5V203.25H153ZM156.5 196.25H161.75V192.75H156.5V196.25ZM156.5 201.5H161.75V198H156.5V201.5ZM167 203.25V194.5H168.75V192.75H170.5V191H175.75V192.75H177.5V194.5H179.25V203.25H175.75V199.75H170.5V203.25H167ZM170.5 198H175.75V194.5H174V192.75H172.25V194.5H170.5V198ZM181 203.25V191H182.75V196.25H184.5V192.75H186.25V191H191.5V192.75H193.25V201.5H191.5V203.25H186.25V201.5H184.5V198H182.75V203.25H181ZM188 201.5H189.75V192.75H188V201.5ZM205.5 205V203.25H195V191H198.5V201.5H200.25V191H202V201.5H203.75V191H207.25V201.5H209V205H205.5ZM209 203.25V191H212.5V198H214.25V196.25H216V194.5H217.75V191H221.25V203.25H217.75V198H216V199.75H214.25V201.5H212.5V203.25H209ZM224.75 192.75V191H233.5V192.75H224.75ZM223 203.25V194.5H226.5V199.75H228.25V198H230V196.25H231.75V194.5H235.25V203.25H231.75V199.75H230V201.5H228.25V203.25H223ZM256.25 203.25V192.75H252.75V191H263.25V192.75H259.75V203.25H256.25ZM265 203.25V191H277.25V192.75H268.5V196.25H275.5V198H268.5V201.5H277.25V203.25H265ZM280.75 203.25V191H291.25V194.5H289.5V192.75H284.25V203.25H280.75Z" fill="black"/>
<path d="M40.5 164.875V158.75H34.375V152.625H28.25V146.5H22.125V140.375H28.25V134.25H34.375V128.125H40.5V122H52.75V128.125H46.625V134.25H40.5V140.375H34.375V146.5H40.5V152.625H46.625V158.75H52.75V164.875H40.5ZM107.875 122V128.125H101.75V122H107.875ZM95.625 128.125H101.75V134.25H95.625V128.125ZM89.5 134.25H95.625V140.375H89.5V134.25ZM83.375 140.375H89.5V146.5H83.375V140.375ZM77.25 146.5H83.375V152.625H77.25V146.5ZM71.125 152.625H77.25V158.75H71.125V152.625ZM65 158.75H71.125V164.875H65V158.75ZM114 164.875V122H126.25V140.375H144.625V122H156.875V164.875H144.625V146.5H126.25V164.875H114ZM181.375 164.875V128.125H169.125V122H205.875V128.125H193.625V164.875H181.375ZM212 164.875V122H224.25V128.125H230.375V134.25H236.5V128.125H242.625V122H254.875V164.875H242.625V140.375H236.5V152.625H230.375V140.375H224.25V164.875H212ZM267.125 164.875V122H279.375V158.75H303.875V164.875H267.125ZM316.125 164.875V158.75H322.25V152.625H328.375V146.5H334.5V140.375H328.375V134.25H322.25V128.125H316.125V122H328.375V128.125H334.5V134.25H340.625V140.375H346.75V146.5H340.625V152.625H334.5V158.75H328.375V164.875H316.125Z" fill="black"/>
</svg>
